# Blender3D v246 OBJ File: ship.blend
# www.blender3d.org
o Cube.001
v 0.970509 0.412235 -0.112323
v -0.970509 0.412235 -0.112323
v 0.775536 -0.921631 -0.063893
v -0.775536 -0.921631 -0.063893
v 0.000000 -0.921630 0.128745
v 0.859117 -0.209028 -0.084654
v -0.859117 -0.209028 -0.084654
v 0.774794 -0.324052 -0.063709
v -0.774794 -0.324052 -0.063709
v 0.000000 -0.434198 0.128639
v 0.389781 0.412236 0.031926
v -0.389781 0.412236 0.031926
v 0.199801 1.464962 0.079116
v -0.199801 1.464962 0.079116
v 0.000000 1.648866 0.128745
v 0.974221 -0.037703 -0.113246
v -0.974221 -0.037703 -0.113246
v 0.251110 0.350879 0.066371
v -0.251110 0.350879 0.066371
v 0.908218 0.299890 -0.096851
v -0.908218 0.299890 -0.096851
v 0.402553 -0.135493 0.028753
v -0.402553 -0.135493 0.028753
v 0.558548 -0.795187 -0.009995
v -0.558548 -0.795187 -0.009995
v 0.000000 -0.016850 0.128639
v 0.807054 -0.186658 -0.179083
v -0.807054 -0.186658 -0.179083
v 0.243050 -0.838943 -0.053954
v -0.243050 -0.838943 -0.053954
v 1.107871 -0.492468 -0.245822
v -1.107871 -0.492468 -0.245822
v 1.108549 -1.105713 -0.245973
v -1.108549 -1.105713 -0.245973
v 0.525730 -1.126046 -0.116669
v -0.525730 -1.126046 -0.116669
v 0.817140 -1.115880 -0.181321
v -0.817140 -1.115880 -0.181321
v 1.108210 -0.799091 -0.245898
v -1.108210 -0.799091 -0.245898
v 0.952950 -0.334976 -0.211452
v -0.952950 -0.334976 -0.211452
v 0.380150 -0.978188 -0.084371
v -0.380150 -0.978188 -0.084371
v 0.065574 -0.921630 0.112457
v -0.065574 -0.921630 0.112457
v 0.149606 -1.050626 0.053661
v -0.149606 -1.050626 0.053661
v 0.691504 -1.050626 -0.080943
v -0.691504 -1.050626 -0.080943
v 0.128268 0.159186 0.169009
v -0.128268 0.159186 0.169009
v 0.000000 0.464193 0.224894
v 0.000000 -0.919906 0.129105
v 0.059819 -0.919906 0.114497
v -0.059819 -0.919906 0.114497
v 0.000000 -0.435366 0.225070
v 0.128268 -0.519954 0.169009
v -0.128268 -0.519954 0.169009
v 0.000000 -0.545540 0.206861
v 0.128268 -0.628293 0.150799
v -0.128268 -0.628293 0.150799
v 0.000000 0.166525 0.225070
v 0.107103 -0.056197 0.178259
v -0.107103 -0.056197 0.178259
v 0.000000 -0.037822 0.225070
v 0.128268 -0.214393 0.169009
v -0.128268 -0.214393 0.169009
v 0.107103 -0.185259 0.178259
v -0.107103 -0.185259 0.178259
vn 0.240851 -0.000033 0.970562
vn -0.240851 -0.000033 0.970562
vn 0.240972 -0.000032 0.970532
vn -0.240972 -0.000032 0.970532
vn 0.240768 -0.000062 0.970583
vn -0.240768 -0.000062 0.970583
vn 0.216593 -0.000000 0.976262
vn -0.216593 -0.000000 0.976262
vn 0.271197 -0.189493 0.943687
vn -0.271197 -0.189493 0.943687
vn 0.400484 0.000000 0.916304
vn -0.400484 0.000000 0.916304
vn 0.400483 0.000000 0.916304
vn -0.400483 0.000000 0.916304
vn 0.241068 0.000000 0.970508
vn -0.241068 0.000000 0.970508
vn 0.241070 0.000211 0.970508
vn -0.241070 0.000211 0.970508
vn 0.241019 0.000204 0.970520
vn -0.241019 0.000204 0.970520
vn 0.308121 -0.156402 0.938403
vn -0.308121 -0.156402 0.938403
vn 0.231817 -0.274366 0.933265
vn -0.231817 -0.274366 0.933265
vn 0.400499 0.000314 0.916297
vn -0.400499 0.000314 0.916297
g Cube.001_Cube.001_Material
usemtl Material
s off
f 10//1 24//1 22//1 26//1
f 23//2 25//2 10//2 26//2
f 18//3 26//3 22//3 20//3
f 23//4 26//4 19//4 21//4
f 15//5 26//5 18//5
f 19//6 26//6 15//6
f 35//7 37//7 39//7 31//7
f 40//8 38//8 36//8 32//8
f 29//7 43//7 41//7 27//7
f 42//8 44//8 30//8 28//8
f 43//7 35//7 31//7 41//7
f 32//8 36//8 44//8 42//8
f 60//9 54//9 55//9 61//9
f 56//10 54//10 60//10 62//10
f 58//11 69//11 66//11 57//11
f 66//12 70//12 59//12 57//12
f 69//11 64//11 63//11 66//11
f 63//12 65//12 70//12 66//12
f 58//13 67//13 69//13
f 70//14 68//14 59//14
g Cube.001_Cube.001_Material.001
usemtl Material.001
f 11//15 13//15 15//15 18//15
f 15//16 14//16 12//16 19//16
f 1//15 11//15 18//15 20//15
f 19//16 12//16 2//16 21//16
f 6//15 20//15 22//15 8//15
f 23//16 21//16 7//16 9//16
f 3//15 8//15 22//15 24//15
f 23//16 9//16 4//16 25//16
f 1//15 20//15 6//15 16//15
f 7//16 21//16 2//16 17//16
f 37//7 33//7 39//7
f 40//8 34//8 38//8
f 45//15 3//15 24//15
f 25//16 4//16 46//16
f 10//17 5//17 45//17
f 46//18 5//18 10//18
f 45//19 24//19 10//19
f 10//20 25//20 46//20
f 61//21 58//21 57//21 60//21
f 57//22 59//22 62//22 60//22
g Cube.001_Cube.001_Material.002
usemtl Material.002
f 3//23 45//23 47//23 49//23
f 48//24 46//24 4//24 50//24
f 67//13 51//13 64//13 69//13
f 65//14 52//14 68//14 70//14
f 51//25 53//25 63//25 64//25
f 63//26 53//26 52//26 65//26
